:SAMPLES-PER-SECOND 30
:FULLY-SPECIFIED
:DEGREES
134
root  -5.88502 38.8916 12.4126 178.824 55.3918 177.761
RightUpLeg  -16.3949 -6.27849 -9.14129
RightLeg  16.5864 -3.09724 -1.5003
RightFoot  1.83388 -1.71744 14.9042
RightToes  -1.39699e-009 0 -3.6325e-017
Spine  7.38112 -1.7163 -7.15848
Spine1  23.3395 -3.26977 2.12502
HEad  -21.028 44.5957 -18.2892
LeftShoulder1  1.38102 -2.51842 -16.1852
LeftArm  16.8017 3.73809 -64.1825
LeftForeArm  24.4101 -72.7946 -37.7825
LeftHand  -2.04791 -2.65626 29.2338
RightShoulder  0.769448 0.648917 11.4351
RightArm  11.5806 -10.9846 50.5644
RightForeArm  130.293 74.4044 138.535
RightHand  -0.546769 2.34923 -8.39345
LeftUpLeg  -4.45658 -6.02856 6.3475
LeftLeg  23.3801 2.45965 1.50101
LeftFoot  -14.8666 -0.343576 -14.0089
LeftToes  3.40148e-010 1.80944e-010 1.01921e-010
135
root  -6.32959 38.8191 12.0912 178.725 55.8149 177.599
RightUpLeg  -16.744 -5.64601 -10.0704
RightLeg  16.3649 -3.16927 -1.5132
RightFoot  2.20274 -1.86589 15.7521
RightToes  -1.39699e-009 0 -3.6325e-017
Spine  7.38563 -1.59634 -7.99316
Spine1  23.5223 -3.43611 2.55126
HEad  -21.1245 44.4552 -18.2206
LeftShoulder1  1.39631 -2.55131 -16.325
LeftArm  17.7273 1.59081 -64.4831
LeftForeArm  24.8843 -73.0262 -38.4623
LeftHand  -2.07658 -2.73477 29.3511
RightShoulder  0.760189 0.565028 11.6094
RightArm  10.2953 -11.4125 51.0439
RightForeArm  130.806 74.4123 138.609
RightHand  -0.603857 2.43086 -9.15623
LeftUpLeg  -4.55645 -4.29999 5.53291
LeftLeg  23.338 2.04491 1.30362
LeftFoot  -15.9841 -0.410083 -12.4164
LeftToes  3.40148e-010 1.80944e-010 1.01921e-010
136
root  -6.77846 38.677 11.7864 178.043 56.0642 176.882
RightUpLeg  -17.5203 -5.07411 -11.436
RightLeg  17.2736 -3.26941 -1.45785
RightFoot  2.0371 -1.93591 16.5228
RightToes  -1.39699e-009 0 -3.6325e-017
Spine  7.59641 -1.38196 -9.20164
Spine1  23.6139 -3.56501 3.06802
HEad  -21.0594 44.1523 -17.9703
LeftShoulder1  1.39499 -2.54946 -16.3088
LeftArm  18.1779 -0.346377 -64.7347
LeftForeArm  25.4828 -73.3912 -39.6401
LeftHand  -2.10387 -2.80184 29.4871
RightShoulder  0.737098 0.392376 11.8759
RightArm  8.69327 -12.1293 52.1321
RightForeArm  131.625 74.3733 138.869
RightHand  -0.668109 2.59842 -9.90655
LeftUpLeg  -4.89613 -3.96019 4.28797
LeftLeg  23.7732 2.02722 1.31818
LeftFoot  -17.3191 -0.516557 -11.8311
LeftToes  3.40148e-010 1.80944e-010 1.01921e-010
137
root  -7.1848 38.4938 11.5182 176.656 56.1094 175.446
RightUpLeg  -18.6376 -5.25326 -13.1202
RightLeg  19.1206 -2.88115 -1.30857
RightFoot  1.722 -1.95859 17.0923
RightToes  -1.39699e-009 0 -3.6325e-017
Spine  7.81785 -1.16129 -10.7549
Spine1  23.7773 -3.6171 3.32308
HEad  -21.0222 43.6641 -17.7285
LeftShoulder1  1.39936 -2.57537 -16.2802
LeftArm  18.1864 -1.84533 -64.4381
LeftForeArm  27.1376 -74.0965 -42.0474
LeftHand  -2.10831 -2.77969 29.6222
RightShoulder  0.702764 0.146977 12.2521
RightArm  6.98517 -13.0972 53.8208
RightForeArm  132.773 74.2076 139.529
RightHand  -0.730669 2.8035 -10.5534
LeftUpLeg  -5.33078 -4.27466 2.60468
LeftLeg  24.7187 2.43335 1.56822
LeftFoot  -18.7109 -0.626825 -11.4452
LeftToes  3.40148e-010 1.80944e-010 1.01921e-010
138
root  -7.5416 38.3374 11.2926 175.258 56.0068 174.065
RightUpLeg  -19.7149 -5.97578 -14.5836
RightLeg  20.9993 -2.23892 -1.16176
RightFoot  1.95872 -2.0343 17.4406
RightToes  -1.39699e-009 0 -3.6325e-017
Spine  7.91936 -0.967793 -11.9718
Spine1  24.2196 -3.53831 3.25967
HEad  -21.1695 42.9657 -17.7158
LeftShoulder1  1.42026 -2.61781 -16.4782
LeftArm  17.8612 -3.03966 -63.3524
LeftForeArm  29.4149 -74.8893 -45.1185
LeftHand  -2.10472 -2.67142 29.9511
RightShoulder  0.678382 -0.0693369 12.8169
RightArm  5.38039 -14.2139 55.8017
RightForeArm  133.757 74.0648 140.085
RightHand  -0.790464 2.98651 -11.1592
LeftUpLeg  -5.80158 -4.25571 1.07413
LeftLeg  25.8737 2.61949 1.73167
LeftFoot  -19.6598 -0.660589 -10.6739
LeftToes  3.40148e-010 1.80944e-010 1.01921e-010
